<?xml version="1.0" encoding="utf-8"?>
<!-- Generator: Adobe Illustrator 21.0.0, SVG Export Plug-In . SVG Version: 6.00 Build 0)  -->
<svg version="1.1" id="Layer_1" xmlns="http://www.w3.org/2000/svg" xmlns:xlink="http://www.w3.org/1999/xlink" x="0px" y="0px"
	 viewBox="0 0 89.2 77.4" style="enable-background:new 0 0 89.2 77.4;" xml:space="preserve">
<style type="text/css">
	.st0{fill:#FFFFFF;}
</style>
<g>
	<path class="st0" d="M34.9,43.3c2-2.1,3.3-4.6,3.7-6.1c0.3-1,0.5-2,0.6-2.7c0.8-0.4,1.5-1.1,1.8-2c0.5-1.3,0.8-3.9,0.8-4.1
		c0.2-2.1-0.5-3.4-0.6-3.4c0.9-8.6-1.9-10.3-3.7-10.6c-0.7-0.1-1.6-0.4-2.1-0.8c-1-1.1-1.5-2.4-3.3-2.3c-0.7,0-1.5-0.2-2-0.6
		c-0.7-0.6-1.6-1.2-2.3-1.2c-0.7,0-1.5,0.6-2.2,1.2c-0.5,0.4-1.4,0.7-2,0.6c-1.8-0.1-2.2,1.2-3.3,2.3c-0.4,0.5-1.4,0.7-2.1,0.8
		c-1.8,0.3-4.6,2-3.7,10.7c-0.1,0.1-0.8,1.3-0.6,3.4c0,0.1,0.3,2.8,0.8,4.1c0.4,0.9,1,1.6,1.8,2c0.1,0.8,0.3,1.8,0.6,2.7
		c0.4,1.5,1.8,4.1,3.8,6.2h0c-0.3,12-25.5,5.4-20.1,26.9c1.7,6.1,23.8,7.2,27.1,7c3.4,0.2,25.4-0.9,27.1-7
		C60.4,48.8,35.3,55.3,34.9,43.3z"/>
	<path class="st0" d="M69.2,33.9C84.4,31,80.5,5.2,67,0.3c-1.1-0.3-3-0.5-4.9,0.3c-1.9-0.9-3.8-0.6-4.9-0.3
		c-13.5,5-17.4,30.7-2.2,33.7c-0.6,6.8-10.1,6.8-16,10.6c0.7,1.4,2.5,2.4,6.6,4.1c5.9,2.4,14.3,5.9,13.9,17c1.2,0,2.1,0,2.6,0
		c3.4,0.2,25.5-0.9,27.2-6.8C94.5,38,70.2,44.9,69.2,33.9z"/>
</g>
</svg>
